<svg xmlns="http://www.w3.org/2000/svg"><symbol id="artboard-1" viewBox="0 0 134 129"><path fill="#c4aead" d="M38 44h57v10.53H38zm0 15h57v10.53H38zm0 15.1h57v10.53H38z"/></symbol><symbol id="artboard-4" viewBox="0 0 133.9 129"><path fill="#c4aead" fill-rule="evenodd" d="M91.5 60.2h-2.4v-4.9H61.7v32.2h12.5v4.1a4.5 4.5 0 0 0 1.2 3.4H63a3.9 3.9 0 0 1-2.7-1.1 3.6 3.6 0 0 1-1.1-2.6V54a3.6 3.6 0 0 1 1.1-2.6 3.9 3.9 0 0 1 2.7-1.1h24.8a3.9 3.9 0 0 1 2.7 1.1 3.5 3.5 0 0 1 1 2.6zm5 5.6a3.1 3.1 0 0 0-3.1-3.1H79.7a3.1 3.1 0 0 0-3.1 3.1v26.1a3.1 3.1 0 0 0 3.1 3.1h13.7a3.1 3.1 0 0 0 3.1-3.1zM58.2 95H41.9l6.4-7.5h8.5V92a3.6 3.6 0 0 0 1.4 3zm28.4-2.5a2.5 2.5 0 0 1-2.5-2.5 2.5 2.5 0 0 1 2.5-2.5 2.6 2.6 0 0 1 2.5 2.5 2.5 2.5 0 0 1-2.5 2.5zm7.4-7.4v-15H79.1v15zm-4.9-37.3h-5v-7.5H41.9v37.3h14.9v5H36.9V35.4h52.2zm-1.3 17.4h-2.5a1.2 1.2 0 0 0-1.2 1.2 1.2 1.2 0 0 0 1.2 1.3h2.5a1.3 1.3 0 0 0 1.3-1.3 1.2 1.2 0 0 0-1.3-1.2z"/></symbol><symbol id="artboard-2" viewBox="0 0 133.9 129"><path fill="#c4aead" d="M69.9 42.4c7.2 0 8.1 0 11 .2 7.4.3 10.8 3.8 11.1 11.1.2 2.9.2 3.8.2 11s0 8.2-.2 11.1c-.3 7.3-3.7 10.8-11.1 11.1-2.9.2-3.8.2-11 .2s-8.2 0-11.1-.2c-7.4-.3-10.8-3.8-11.1-11.1-.2-2.9-.2-3.8-.2-11.1s0-8.1.2-11c.3-7.3 3.8-10.8 11.1-11.1 2.9-.2 3.8-.2 11.1-.2zm0-4.9c-7.4 0-8.4 0-11.3.2-9.9.4-15.4 5.9-15.8 15.8-.2 2.9-.2 3.8-.2 11.2s0 8.4.2 11.3c.4 9.9 5.9 15.4 15.8 15.8 2.9.2 3.9.2 11.3.2s8.3 0 11.2-.2c9.9-.4 15.4-5.9 15.8-15.8.2-2.9.2-3.9.2-11.3s0-8.3-.1-11.2c-.5-9.9-6-15.4-15.9-15.8-2.9-.2-3.8-.2-11.2-.2zm0 13.2a14 14 0 1 0 14 14 14 14 0 0 0-14-14zm0 23.1a9.1 9.1 0 1 1 9-9.1 9 9 0 0 1-9 9.1zm14.5-26.9a3.3 3.3 0 1 0 3.3 3.3 3.3 3.3 0 0 0-3.3-3.3z"/></symbol><symbol id="artboard-5" viewBox="0 0 134 124.6"><path fill="#c4aead" fill-rule="evenodd" stroke="#c4aead" stroke-miterlimit="10" stroke-width="2" d="M67.5 86.3C53.4 72.4 40 60.5 40 50.2s7.6-13 13.2-13c3.3 0 10.4 1.3 14.3 11.2 4-10 11.2-11.2 14.3-11.2 6.4 0 13.2 4.1 13.2 13S82.2 71.8 67.5 86.3m14.3-51.6a16.3 16.3 0 0 0-14.3 8.1 16.3 16.3 0 0 0-14.3-8.1c-8 0-15.7 5.5-15.7 15.5 0 11.7 13.9 23.6 30 39.6 16.1-16 30-27.9 30-39.6 0-10-7.7-15.5-15.7-15.5"/></symbol><symbol id="artboard-3" viewBox="0 0 133.9 129"><path fill="#c4aead" d="M90.1 44.4H43.6a2.7 2.7 0 0 0-2.8 2.7v42.3a2.7 2.7 0 0 0 2.8 2.6h25V73.6h-6.8v-7.2h6.8v-5.3c0-6.1 4.2-9.5 10.2-9.5a57.2 57.2 0 0 1 6.1.3v6.4h-4.2c-3.3 0-3.9 1.4-3.9 3.5v4.6h7.8l-1 7.2h-6.8V92h13.3a2.8 2.8 0 0 0 2.9-2.6V47.1a2.8 2.8 0 0 0-2.9-2.7z"/></symbol><symbol id="artboard-7" viewBox="0 0 134 124.6"><path fill="#c4aead" d="M98 37.8l-1.9 5.1h-4.9l-8.9 30.7H48.5L36.7 45.4h43l-1.5 5.2H44.4l7.5 17.8h26.6l8.8-30.6zM58.4 76.1a3.9 3.9 0 0 0 0 7.7 3.9 3.9 0 1 0 0-7.7zm15.2 0a3.8 3.8 0 0 0-3.8 3.8 3.8 3.8 0 1 0 7.6 0 3.8 3.8 0 0 0-3.8-3.8z"/></symbol><symbol id="artboard-8" viewBox="0 0 134 124.6"><path fill="#010101" d="M93.3 82.4L73.4 62.7l19.7-19.9-6.1-6.1-19.8 19.9-19.9-19.7-6.1 6.1 20 19.7-19.8 20 6.1 6.1 19.8-20 19.9 19.8z"/></symbol><symbol id="artboard-9" viewBox="0 0 133.9 124.6"><path fill="#010101" d="M93.4 80.4c-10.2-2.4-19.6-4.4-15-13 13.9-26.3 3.7-40.3-11-40.3s-25 14.5-11 40.3c4.7 8.6-5.1 10.7-15 13S32 86.7 32 94.1v3.7h5.9c0-9.3-.4-10.5 5.4-11.8 8.4-2 16.4-3.8 19.3-10.2 1-2.3 1.7-6.2-1-11.2C55.5 53.4 54 43.7 57.4 38s16-6.7 19.9-.1 1.9 15.3-4.1 26.7c-2.7 5.1-2 8.9-.9 11.2 2.9 6.4 10.9 8.3 19.4 10.2 5.5 1.3 5.2 2.6 5.2 11.8h5.8v-3.7c0-7.4-.5-11.7-9.3-13.7z"/></symbol><symbol id="artboard-6" viewBox="0 0 133.9 124.6"><path fill="#c4aead" d="M67.2 40.1a21.7 21.7 0 1 1-21.7 21.7 21.7 21.7 0 0 1 21.7-21.7zm0-4.3a26 26 0 1 0 26 26 25.9 25.9 0 0 0-26-26zm13 28.1H69.3v10.9H65V63.9H54.2v-4.3H65V48.8h4.3v10.8h10.9z"/></symbol><symbol id="artboard-10" viewBox="0 0 134 124.6"><path fill="#010101" d="M31.2 58.8c8.3 1.8 19 5.1 27.2 10.4 9.5-12.8 26.6-24.7 45.2-34.5-17.7 17.4-32.3 37.2-42.2 57.1a157.1 157.1 0 0 0-30.2-33z"/></symbol></svg>