<svg id="Layer_1" data-name="Layer 1" xmlns="http://www.w3.org/2000/svg" width="3.6in" height="3.6in" viewBox="0 0 256 256"><title>logo</title><g id="Group_57" data-name="Group 57"><g id="Just" style="isolation:isolate"><g style="isolation:isolate"><path d="M24.3,142.7a9.2,9.2,0,0,1-3.6,3.7,10.9,10.9,0,0,1-5.4,1.4v-4.2a6.1,6.1,0,0,0,4.3-1.8c1.1-1.1,1.6-2.7,1.6-4.9V115.1h4.4V137A12.6,12.6,0,0,1,24.3,142.7Z" fill="#0c3251"/><path d="M47.3,126.5v15.7H43.5l-.2-2.8a6,6,0,0,1-2.5,2.5,6.1,6.1,0,0,1-3.6,1,5.7,5.7,0,0,1-3.6-1.3,5.1,5.1,0,0,1-1.5-3.4V126.5h4.2v10.2c.1,1.7.9,2.6,2.6,2.6a3.4,3.4,0,0,0,3-1.7,7,7,0,0,0,1.2-4.2v-6.9Z" fill="#0c3251"/><path d="M54.3,141.9a6.1,6.1,0,0,1-2.6-1.8l1.7-2.4a5.9,5.9,0,0,0,4,2,3.6,3.6,0,0,0,1.9-.5,1.6,1.6,0,0,0,0-2.6l-1.7-.7-1.2-.4a5.9,5.9,0,0,1-3-1.8,4.3,4.3,0,0,1-1-2.9,5.3,5.3,0,0,1,.6-2.4,4.4,4.4,0,0,1,2-1.8,6.6,6.6,0,0,1,3.2-.7,9.7,9.7,0,0,1,3.1.4,6.7,6.7,0,0,1,2.5,1.3l-1.6,2.5a3.9,3.9,0,0,0-1.6-1,4.2,4.2,0,0,0-1.8-.4,2.9,2.9,0,0,0-1.6.4,1.4,1.4,0,0,0-.6,1.2,1.5,1.5,0,0,0,.6,1.3,19,19,0,0,0,2.2.9l.8.2a6.8,6.8,0,0,1,2.9,1.7,3.8,3.8,0,0,1,1.1,2.8,5,5,0,0,1-1.7,3.8,6.8,6.8,0,0,1-4.7,1.6A10.4,10.4,0,0,1,54.3,141.9Z" fill="#0c3251"/><path d="M74.5,119.6v6.9h4.1v3.3H74.5v12.4H70.3V129.8H67.6v-3.3h2.7v-6.9Z" fill="#0c3251"/></g></g><g id="Group_56" data-name="Group 56"><g id="Rectangle_12" data-name="Rectangle 12"><rect x="90.8" y="75.8" width="57.3" height="104.86" rx="12.8" fill="none" stroke="#c4aead" stroke-miterlimit="10"/><rect x="91.4" y="76.4" width="56.1" height="103.64" rx="12.2" fill="none" stroke="#c4aead"/></g><g id="Rectangle_13" data-name="Rectangle 13"><path d="M100.2,81.9h12.2a3.9,3.9,0,0,1,4,3.9h0a4,4,0,0,1-4,4H100.2a3.9,3.9,0,0,1-3.9-4h0A3.8,3.8,0,0,1,100.2,81.9Z" fill="none" stroke="#c4aead" stroke-miterlimit="10"/><path d="M100.2,82.5h12.2a3.4,3.4,0,0,1,3.4,3.3h0a3.4,3.4,0,0,1-3.4,3.4H100.2a3.4,3.4,0,0,1-3.3-3.4h0A3.3,3.3,0,0,1,100.2,82.5Z" fill="none" stroke="#c4aead"/></g></g><g id="In" style="isolation:isolate"><g style="isolation:isolate"><path d="M111.7,115.8v27h-4.4v-27Z" fill="#0c3251"/><path d="M132.2,127.7a5.4,5.4,0,0,1,1.5,3.5v11.6h-4.2V132.6a2.9,2.9,0,0,0-.7-1.9,2.6,2.6,0,0,0-2-.7,3.9,3.9,0,0,0-3.2,1.6,7,7,0,0,0-1.2,4.2v7h-4.2V127.1H122l.3,2.8a6.3,6.3,0,0,1,2.5-2.6,7.2,7.2,0,0,1,3.7-.9A5.7,5.7,0,0,1,132.2,127.7Z" fill="#0c3251"/></g></g><g id="Case" style="isolation:isolate"><g style="isolation:isolate"><path d="M178.6,141.1a13.3,13.3,0,0,1-4.5.8,14,14,0,0,1-7.2-1.8,11.9,11.9,0,0,1-4.8-4.9,13.5,13.5,0,0,1-1.6-6.7,15.1,15.1,0,0,1,1.6-7.1,11.7,11.7,0,0,1,4.7-4.9,12.8,12.8,0,0,1,6.8-1.8,14.9,14.9,0,0,1,4.3.6,12.5,12.5,0,0,1,3.5,1.6l-1.7,4a10,10,0,0,0-6-2.1,8.6,8.6,0,0,0-4.4,1.2,9.8,9.8,0,0,0-3.2,3.5,9.5,9.5,0,0,0-1.2,4.8,11.4,11.4,0,0,0,1.1,4.9,8.7,8.7,0,0,0,3.2,3.4,9.5,9.5,0,0,0,4.8,1.2,9.9,9.9,0,0,0,3.5-.6,9.3,9.3,0,0,0,2.6-1.5l1.8,3.8A12.7,12.7,0,0,1,178.6,141.1Z" fill="#0c3251"/><path d="M202.9,126.1v15.5h-4.1v-2.2a11.5,11.5,0,0,1-2.3,1.8,6.7,6.7,0,0,1-3.3.8,8.7,8.7,0,0,1-4-.9,6.9,6.9,0,0,1-2.8-2.8,9.8,9.8,0,0,1-1-4.4,9.4,9.4,0,0,1,1.1-4.5,7.8,7.8,0,0,1,2.8-2.9,7.7,7.7,0,0,1,3.9-1.1,6.4,6.4,0,0,1,5.6,2.8l.3-2.1Zm-5.7,11.7a5.1,5.1,0,0,0,1.6-2.4V132a4.4,4.4,0,0,0-1.7-2.3,4.8,4.8,0,0,0-2.9-.9,4.5,4.5,0,0,0-3.3,1.4,4.8,4.8,0,0,0-1.4,3.5,5.5,5.5,0,0,0,.7,2.5A4.5,4.5,0,0,0,192,138a4.6,4.6,0,0,0,2.3.6A4.5,4.5,0,0,0,197.2,137.8Z" fill="#0c3251"/><path d="M209.8,141.3a6.8,6.8,0,0,1-2.6-1.8l1.7-2.3a6,6,0,0,0,4,1.9,4.8,4.8,0,0,0,1.8-.4,1.6,1.6,0,0,0,0-2.6l-1.7-.7-1.1-.4a6.4,6.4,0,0,1-3-1.8,4,4,0,0,1-1-2.8,5.3,5.3,0,0,1,.6-2.4,5.9,5.9,0,0,1,2-1.8,6.2,6.2,0,0,1,3.1-.7,9.7,9.7,0,0,1,3.1.4,7,7,0,0,1,2.4,1.3l-1.5,2.4a5.1,5.1,0,0,0-1.6-.9,4.1,4.1,0,0,0-1.7-.4,2.5,2.5,0,0,0-1.6.4,1.5,1.5,0,0,0,0,2.4,7.2,7.2,0,0,0,2.1.9l.8.3a7.3,7.3,0,0,1,2.9,1.6,3.6,3.6,0,0,1,1,2.7,4.9,4.9,0,0,1-1.6,3.8,6.8,6.8,0,0,1-4.7,1.5A9.7,9.7,0,0,1,209.8,141.3Z" fill="#0c3251"/><path d="M235,137.3l1.8,3-2.6,1.3a9.5,9.5,0,0,1-2.8.4,8.5,8.5,0,0,1-4.6-1.1,7,7,0,0,1-3-2.9,8.3,8.3,0,0,1-1-4.3,7.2,7.2,0,0,1,1.1-4.1,8.4,8.4,0,0,1,3.2-3,8.6,8.6,0,0,1,4.4-1.2,7.7,7.7,0,0,1,5.2,1.9,9.4,9.4,0,0,1,2.8,5.2l-11.9,4a3.9,3.9,0,0,0,1.6,1.5,5.9,5.9,0,0,0,2.3.5A6.4,6.4,0,0,0,235,137.3Zm-7-7.3a5.1,5.1,0,0,0-1.2,3.5v.6l8.1-2.8a3.8,3.8,0,0,0-1.4-1.9,3.5,3.5,0,0,0-2.3-.7A4.1,4.1,0,0,0,228,130Z" fill="#0c3251"/></g></g></g></svg>